<svg width="113" height="133" viewBox="0 0 113 133" fill="none" xmlns="http://www.w3.org/2000/svg">
<path d="M109.701 29.7381L109.802 125.702C109.802 128.677 107.385 131.093 104.412 131.093H6.37687C3.40221 131.093 0.984863 128.677 0.984863 125.702V7.43812C0.984863 4.46478 3.40221 2.04745 6.37687 2.04745H82.2542" fill="white"/>
<path d="M83.0098 2.04822L110.454 29.3242Z" fill="#E5EEFD"/>
<path d="M83.0098 2.04822L110.454 29.3242" stroke="#717791" stroke-width="3.33333" stroke-miterlimit="10" stroke-linecap="round" stroke-linejoin="round"/>
<path d="M112.122 29.737L112.175 79.529L112.201 104.425L112.214 116.873L112.221 123.097L112.222 124.653C112.217 125.192 112.242 125.616 112.19 126.364C112.061 127.717 111.533 129.033 110.685 130.092C109.841 131.153 108.689 131.964 107.395 132.394C106.749 132.598 106.074 132.742 105.397 132.75C104.77 132.769 104.33 132.756 103.787 132.76H97.5634H85.1154H60.2194H10.4274H7.31542C6.07942 132.792 4.61409 132.454 3.48476 131.737C2.32076 131.041 1.36876 129.997 0.782094 128.77C0.479428 128.162 0.275427 127.504 0.171427 126.833C0.108761 126.498 0.0900945 126.16 0.0780945 125.821L0.0727539 125.016V112.568V87.6716V37.8796V12.985V9.87298V8.31698V7.53832C0.0807539 7.26098 0.0874283 6.87699 0.132762 6.55432C0.444762 3.83032 2.48476 1.43565 5.11409 0.678312C5.76743 0.482312 6.44609 0.395646 7.12209 0.380979H8.68076H11.7928L18.0168 0.378314C26.3154 0.387647 34.6141 0.326314 42.9128 0.415647L55.3608 0.50365C59.5101 0.528983 63.6594 0.650317 67.8088 1.09565C68.3341 1.15165 68.7154 1.62365 68.6594 2.15032C68.6101 2.60632 68.2474 2.95432 67.8088 3.00098C63.6594 3.44632 59.5101 3.56765 55.3608 3.59298L42.9128 3.68099C34.6141 3.77032 26.3154 3.70765 18.0168 3.71699L11.7928 3.71431H8.68076H7.12609C6.76609 3.72898 6.41009 3.76765 6.06742 3.87165C4.68876 4.26632 3.59542 5.54498 3.44076 6.97031C3.41409 7.16098 3.41675 7.29832 3.40609 7.53832V8.31698V9.87298V12.985V37.8796V87.6716V112.568V125.016L3.41143 125.765C3.42076 125.945 3.42475 126.125 3.46075 126.301C3.51409 126.654 3.62076 126.998 3.78209 127.318C4.08609 127.962 4.59676 128.521 5.21143 128.885C5.84476 129.268 6.48342 129.437 7.31542 129.426H10.4274H60.2194H85.1154H97.5634H103.787C104.281 129.422 104.878 129.434 105.289 129.418C105.65 129.421 106.001 129.334 106.341 129.233C107.018 129.008 107.629 128.577 108.078 128.016C108.527 127.452 108.799 126.766 108.871 126.053C108.897 125.766 108.889 125.153 108.889 124.654L108.887 123.098L108.881 116.874L108.867 104.428L108.842 79.5316L108.789 29.7397C108.789 28.8197 109.534 28.073 110.454 28.0717C111.374 28.0703 112.122 28.817 112.122 29.737Z" fill="#717791"/>
<path d="M84.6646 2.04807L84.6766 29.3241L83.0099 27.6574C85.4739 27.7161 87.9366 27.8361 90.3993 27.9374C91.6313 27.9934 92.8619 28.0254 94.0939 28.1241C95.3259 28.1921 96.5566 28.3401 97.7886 28.3774C98.3113 28.3934 98.7219 28.8294 98.7059 29.3521C98.6913 29.8547 98.2846 30.2534 97.7886 30.2694C96.5566 30.3067 95.3259 30.4547 94.0939 30.5241C92.8619 30.6214 91.6313 30.6547 90.3993 30.7107C87.9366 30.8121 85.4739 30.9307 83.0099 30.9907C82.1113 31.0121 81.3659 30.3014 81.3446 29.4027L81.3433 29.3707V29.3241L81.3566 2.04807C81.3566 1.13341 82.0979 0.393409 83.0113 0.393409C83.9246 0.394742 84.6646 1.13341 84.6646 2.04807Z" fill="#717791"/>
<path d="M25.4098 56.4775C30.4858 55.9375 35.5618 55.8535 40.6378 55.8815L55.8658 56.0082C60.9418 56.0268 66.0178 56.1762 71.0938 56.2535C76.1698 56.3468 81.2458 56.4988 86.3218 56.6802C86.7965 56.6975 87.1658 57.0948 87.1498 57.5682C87.1325 58.0202 86.7672 58.3788 86.3218 58.3948C81.2458 58.5775 76.1698 58.7282 71.0938 58.8215C66.0178 58.8988 60.9418 59.0495 55.8658 59.0668L40.6378 59.1948C35.5618 59.2215 30.4858 59.1388 25.4098 58.5975C24.8245 58.5348 24.4005 58.0095 24.4632 57.4242C24.5178 56.9162 24.9205 56.5295 25.4098 56.4775Z" fill="#A3ACD6"/>
<path d="M49.599 71.7898C55.719 70.8125 61.8403 71.0005 67.9603 71.0658C74.0803 71.1605 80.2017 71.3965 86.3217 71.8778C86.759 71.9125 87.0857 72.2938 87.051 72.7311C87.019 73.1258 86.7043 73.4298 86.3217 73.4591C80.2017 73.9405 74.0803 74.1778 67.9603 74.2725C61.8403 74.3365 55.719 74.5245 49.599 73.5471C49.1137 73.4698 48.783 73.0138 48.8603 72.5285C48.923 72.1391 49.2297 71.8498 49.599 71.7898Z" fill="#A3ACD6"/>
<path d="M25.4096 71.668C27.9856 70.884 30.5602 70.996 33.1362 71.0373C35.7122 71.1106 38.2869 71.2693 40.8629 71.668C41.4162 71.7533 41.7949 72.272 41.7096 72.824C41.6402 73.272 41.2869 73.6053 40.8629 73.6706C38.2869 74.0693 35.7122 74.228 33.1362 74.3C30.5602 74.3426 27.9856 74.4546 25.4096 73.6706C24.8562 73.5026 24.5442 72.9173 24.7136 72.364C24.8176 72.02 25.0909 71.768 25.4096 71.668Z" fill="#A3ACD6"/>
<path d="M79.2171 87.1204C80.4011 86.5338 81.5851 86.3098 82.7704 86.1871C83.3611 86.1311 83.9531 86.0964 84.5464 86.1804C85.1371 86.2711 85.7304 86.4004 86.3224 86.7618C86.8957 87.1111 87.0784 87.8591 86.7291 88.4324C86.6251 88.6031 86.4811 88.7418 86.3224 88.8391C85.7304 89.2004 85.1371 89.3298 84.5464 89.4204C83.9531 89.5044 83.3611 89.4698 82.7704 89.4138C81.5851 89.2911 80.4011 89.0671 79.2171 88.4804C78.8411 88.2938 78.6877 87.8391 78.8744 87.4631C78.9504 87.3084 79.0731 87.1911 79.2171 87.1204Z" fill="#A3ACD6"/>
<path d="M25.4099 87.0306C29.0512 86.8479 32.6939 86.7039 36.3365 86.5972C39.9792 86.5079 43.6205 86.3706 47.2632 86.3226L58.1885 86.1639C61.8312 86.0986 65.4739 86.1146 69.1152 86.6719C69.7392 86.7666 70.1672 87.3492 70.0725 87.9732C69.9939 88.4786 69.5952 88.8546 69.1152 88.9292C65.4739 89.4866 61.8312 89.5026 58.1885 89.4372L47.2632 89.2786C43.6205 89.2292 39.9792 89.0919 36.3365 89.0039C32.6939 88.8972 29.0512 88.7532 25.4099 88.5706C24.9845 88.5492 24.6579 88.1866 24.6792 87.7612C24.6979 87.3639 25.0205 87.0519 25.4099 87.0306Z" fill="#A3ACD6"/>
<path d="M25.4099 41.0765C29.0512 40.8951 32.6939 40.7498 36.3365 40.6431C39.9792 40.5551 43.6205 40.4178 47.2632 40.3698L58.1885 40.2098C61.8312 40.1445 65.4739 40.1605 69.1152 40.7178C69.7392 40.8138 70.1672 41.3965 70.0725 42.0191C69.9939 42.5245 69.5952 42.9018 69.1152 42.9751C65.4739 43.5325 61.8312 43.5485 58.1885 43.4831L47.2632 43.3245C43.6205 43.2751 39.9792 43.1378 36.3365 43.0498C32.6939 42.9431 29.0512 42.7991 25.4099 42.6165C24.9845 42.5951 24.6579 42.2338 24.6792 41.8085C24.6979 41.4098 25.0205 41.0978 25.4099 41.0765Z" fill="#A3ACD6"/>
<path d="M76.3966 41.0766C77.8326 40.7206 79.2673 40.5006 80.7019 40.362C81.4193 40.2873 82.1366 40.2406 82.8553 40.2033C83.5726 40.142 84.2899 40.1633 85.0073 40.718C85.6299 41.1993 85.7459 42.0953 85.2633 42.718C85.1899 42.8153 85.0993 42.9033 85.0073 42.9753C84.2899 43.53 83.5726 43.5513 82.8553 43.49C82.1366 43.4526 81.4193 43.406 80.7019 43.3313C79.2673 43.1926 77.8326 42.9726 76.3966 42.6166C75.9713 42.5113 75.7126 42.0806 75.8179 41.6566C75.8913 41.3606 76.1206 41.146 76.3966 41.0766Z" fill="#A3ACD6"/>
<path d="M25.4095 102.223C28.6468 101.983 31.8841 101.784 35.1228 101.675C38.3601 101.542 41.5975 101.42 44.8348 101.364C51.3108 101.283 57.7855 101.022 64.2615 101.962C64.7961 102.039 65.1668 102.536 65.0895 103.072C65.0255 103.511 64.6788 103.84 64.2615 103.902C57.7855 104.842 51.3108 104.579 44.8348 104.498C41.5975 104.442 38.3601 104.322 35.1228 104.187C31.8841 104.079 28.6468 103.88 25.4095 103.639C25.0188 103.611 24.7241 103.27 24.7535 102.879C24.7801 102.523 25.0641 102.248 25.4095 102.223Z" fill="#A3ACD6"/>
</svg>
